<svg xmlns="http://www.w3.org/2000/svg" xmlns:xlink="http://www.w3.org/1999/xlink" role="presentation" viewBox="0 0 467 32" width="467" height="32">
  <path fill="currentColor" d="M17.97 3.97c0-2.42-2.44-3.17-4.26-3.1v.22c1.16 0 2.07.56 2.07 1.33 0 .78-.4 1.24-1.56 1.24a16.94 16.94 0 0 1-3.9-1.02 14.96 14.96 0 0 0-4.3-1.04A4.16 4.16 0 0 0 1.7 5.65 2.8 2.8 0 0 0 3.67 8.3c-.31-.31-.56-.58-.56-1.35a1.55 1.55 0 0 1 1.73-1.53c1.57.18 3.12.54 4.6 1.07 1.49.44 3 .79 4.53 1.04v3.95l-1.9 1.58 1.9 1.64v5.41c-.95.5-2.01.77-3.09.75a6.16 6.16 0 0 1-4.87-2.04l5.16-2.42V7.78l-6.3 2.79a7.7 7.7 0 0 1 3.21-3.71 9.5 9.5 0 0 0-7.16 8.56 8.7 8.7 0 0 0 5.38 8.12 8.8 8.8 0 0 0 6.5.11 7.82 7.82 0 0 0 4.88-7.58A8.84 8.84 0 0 1 14.22 20V14.7l2-1.6-2-1.62V7.54a3.57 3.57 0 0 0 3.75-3.57ZM7.35 17.91l-1.56.76a7.83 7.83 0 0 1-1.5-4.85c0-1 .17-1.99.48-2.94l2.6-1.2-.02 8.23Zm23.6-6.95-1 .77-2.97-2.64-3.48 2.67V1.46l-4.7 3.22a1.58 1.58 0 0 1 1.19 1.74v14.23l-1.63 1.14.17.15.8-.58 2.8 2.66 3.78-2.42v-.2l-.98.64-1.31-1.31V12.1l.9-.66 2.07 1.77v7.44c0 4.85-1.05 5.72-3.2 6.5 3.56.15 6.75-1.04 6.75-7.13V12.1l1.07-.85-.26-.3ZM37.28 24l5.45-4.39-.14-.24-2.85 2.42-3.3-2.71v-1.6l5.68-3.98-2.87-4.43-6.3 3.44v8.22l-1.22.94.14.17 1.17-.92L37.28 24Zm-.83-6.84v-6.23l2.73 4.3-2.73 1.93Zm28.9-14.35c-.01-.4-.1-.8-.24-1.16-.39 1.04-.8 1.62-2.02 1.62a3.32 3.32 0 0 1-2.44-1.14l-3.6 4.15.17.14 1.02-1.16c.85.83 2 1.3 3.2 1.3v10.38L54.12 4.3a3.98 3.98 0 0 0-3.22-2.43c-1.97 0-3.48 1.7-3.23 4.56h.12c.14-.7.56-1.6 1.43-1.6.88 0 1.25.66 1.59 1.24v4.12c-2.27 0-3.56 1.04-3.56 2.84a2.7 2.7 0 0 0 2.1 2.61.97.97 0 0 1-.42-.8c0-.67.51-1.06 1.44-1.06h.44v5.26c-2.66 0-4.73 1.48-4.73 3.97a3.55 3.55 0 0 0 2.7 3.32c.5.13 1.01.15 1.51.05-1.33-.14-2.02-.82-2.02-1.81a1.57 1.57 0 0 1 1.76-1.63 3.2 3.2 0 0 1 2.43 1.34l3.58-4.03-.14-.14-.93 1.04a6.7 6.7 0 0 0-3.85-2.01V6.5l10.13 17.57h.54V6.57a3.8 3.8 0 0 0 3.68-3.76h-.13ZM68.86 24l5.36-4.39-.25-.24-2.77 2.42-3.29-2.71v-1.6l5.67-3.98-2.87-4.43-6.28 3.44v8.22l-1.24 1.06.14.17 1.17-.92L68.86 24Zm-.83-6.84v-6.23l2.75 4.3-2.75 1.93Zm25.6-6.66-.83.6-2.44-2.01-2.77 2.42 1.12 1.07v9.38l-2.83-1.94v-7.54l.98-.68-2.93-2.71-2.65 2.5 1.14 1.06v9.14h-.2l-2.65-1.94v-7.27c0-1.72-.87-2.23-1.97-2.93-1.1-.7-1.41-1.1-1.41-1.97a1.7 1.7 0 0 1 1.1-1.48 3.83 3.83 0 0 0-3.68 3.23 2.87 2.87 0 0 0 1.22 2.42 2.94 2.94 0 0 1 1.21 2.18v7.28l-1.29 1 .15.16 1.22-.97 3.21 2.55 3.04-2.11 3.34 2.1 6.58-3.85V11.8l1.46-1.13-.13-.17Zm21.91-7.06-1.27 1.14-2.8-2.42-3.7 3V2.4h-.22v20.34c-.44 0-1.29-.3-2.24-.44V5.2a2.96 2.96 0 0 0-3.14-2.96 3.6 3.6 0 0 0-3.65 3.49 1.5 1.5 0 0 1 1.36-1.38c.78 0 1.44.46 1.44 2.13v4.85a3.18 3.18 0 0 0-3.41 2.84 2.27 2.27 0 0 0 2.12 2.42c-.54-.24-.66-.5-.66-.8 0-.73.7-.95 1.66-.95h.24v7.71a3.46 3.46 0 0 0-2.68 3.35 3.77 3.77 0 0 0 4.14 3.68 18.4 18.4 0 0 0 4.53-.65 22.9 22.9 0 0 1 3.43-.56c.98 0 1.4.41 1.4 1.1 0 .67-.35 1.3-.86 1.45v.12a3.46 3.46 0 0 0 3.26-3.42 3.45 3.45 0 0 0-3.84-3.05c-1.53.08-3.03.3-4.5.68-1.25.29-2.51.48-3.78.55-.88 0-1.95-.36-1.95-1.52 0-1.17.88-1.9 3.02-1.9 1.26.04 2.52.2 3.75.51 1.25.4 2.55.67 3.87.78 1.83 0 3.29-.66 3.29-3.3V4.82l1.34-1.23-.15-.15Zm-5.04 8.17a1.68 1.68 0 0 1-2.1.47 1.9 1.9 0 0 1-.63-.47V5.45l.9-.63 1.83 1.55v5.24Zm0 2.91a1.7 1.7 0 0 0-1.34-.58c-.52 0-1.02.22-1.39.58v-2.6c.38.36.87.56 1.39.59a1.78 1.78 0 0 0 1.34-.58v2.59Zm0 6.13a1.91 1.91 0 0 1-1.83 2.16c-.3.02-.6.02-.9 0v-7.98c.36-.38.86-.6 1.39-.63a1.81 1.81 0 0 1 1.34.63v5.82Zm10.64 3.32 6.09-3.78v-8.24l-3.95-2.88-6.08 3.46v8.2l-1.2 1.06.12.17.98-.8 4.04 2.81Zm-.46-4.29v-8.77l3.04 2.25v8.8l-3.04-2.28Zm18.19-10.45a2.2 2.2 0 0 1-1.34.44 1.9 1.9 0 0 1-1.37-.68l-2.26 2.43-2.29-2.43-3.7 2.67.12.2 1-.66 1.34 1.45v8l-1.6 1.14.14.15.8-.58 3.02 2.57 3.82-2.43-.12-.2-1 .61-1.53-1.4v-8.78a3.15 3.15 0 0 0 2.2 1.29c1.55 0 2.6-1.85 2.77-3.76v-.03Zm14.41 11.88-1.14.68-6.3-9.33.33-.36c.75.6 1.67.96 2.63.99a3.8 3.8 0 0 0 3.1-4 2.43 2.43 0 0 1-2.08 1 3.17 3.17 0 0 1-2.04-1l-4.29 6.3 5.7 8.66 4.22-2.74-.13-.2Zm-7.64.22-.98.63-1.31-1.3V1.45l-4.7 3.22a1.58 1.58 0 0 1 1.2 1.74v14.23l-1.64 1.14.17.15.8-.58 2.8 2.57 3.78-2.43-.12-.17Zm27.73-17.36c0-2.42-2.43-3.17-4.28-3.1v.22c1.16 0 2.07.56 2.07 1.33 0 .78-.4 1.24-1.56 1.24a16.77 16.77 0 0 1-3.87-1.02 15.08 15.08 0 0 0-4.34-1.04 4.16 4.16 0 0 0-4.3 4.05 2.8 2.8 0 0 0 1.96 2.66c-.36-.21-.6-.48-.6-1.26a1.57 1.57 0 0 1 1.09-1.45c.2-.07.42-.1.63-.07 1.58.17 3.12.53 4.6 1.06 1.5.45 3.02.8 4.56 1.04v3.86l-1.92 1.58 1.92 1.64v5.41c-.96.5-2.03.77-3.12.75a6.16 6.16 0 0 1-4.87-2.04l5.16-2.42V7.78l-6.25 2.79a7.75 7.75 0 0 1 3.24-3.71 9.5 9.5 0 0 0-7.16 8.65 8.7 8.7 0 0 0 8.74 8.7 7.87 7.87 0 0 0 7.5-5c.38-1 .56-2.07.51-3.14a8.84 8.84 0 0 1-3.39 3.93V14.7l2-1.6-2-1.62V7.54a3.6 3.6 0 0 0 3.78-3.57h-.1Zm-10.64 13.94-1.46.76a7.83 7.83 0 0 1-1.49-4.85c-.03-1 .1-1.99.4-2.94l2.57-1.2-.02 8.23ZM177.2 3.05l-2.63 2.2 2.24 2.43 2.63-2.2-2.25-2.43Zm3.92 18.28-.95.63-1.32-1.3V12.1l1.1-.85-.15-.2-.93.73-2.16-2.6-3.58 2.43v.22l.9-.6 1.2 1.47v7.95l-1.42 1.14.15.15.8-.58 2.83 2.57 3.75-2.43-.22-.17Zm20.16 0-.83.46-1.39-1.33V12.1l1.12-.85-.14-.2-1 .78-3-2.74-3.38 2.62-2.95-2.62-3.31 2.6-2.24-2.6-3.6 2.42v.22l.9-.6 1.29 1.45v8.05l-1 1 2.87 2.42 2.78-2.43-1.12-1.06v-8.61l.73-.53 2.07 1.77v7.44l-.95 1 2.9 2.42 2.7-2.43-1.12-1.06v-8.61l.7-.56 2.1 1.8v7.27l-.83.87 2.92 2.64 3.85-2.61-.07-.03Zm10.5-1.96-2.86 2.42-3.28-2.71v-1.6l5.67-3.98-2.87-4.43-6.31 3.44v8.36l4.33 3.13 5.48-4.39-.17-.24Zm-6.14-2.26v-6.18l2.75 4.3-2.75 1.88Zm17.04-1.18-2.43-1.85a6 6 0 0 0 2.26-5.2 1.89 1.89 0 0 1-1.85 1.2 2.74 2.74 0 0 1-2.12-1.18l-5.77 3.2v4.36l2.12 1.67c-2.12 1.87-2.43 3.03-2.43 4.1a2.58 2.58 0 0 0 1.7 2.42v-.17a1.05 1.05 0 0 1-.51-.94 1.23 1.23 0 0 1 1.36-1.07 3.08 3.08 0 0 1 2.44 1.29l5.3-3.23-.07-4.6Zm-1.26-3.69c-1.01 1.5-2.3 2.8-3.78 3.83l-1.36-1.14v-4.36a3.5 3.5 0 0 0 3.09 2.2c.7.03 1.4-.14 2.02-.48l.03-.05Zm-2.32 9.87a3.9 3.9 0 0 0-3.48-2.43c-.85-.05-1.7.14-2.44.56a14.1 14.1 0 0 1 4.46-3.93l1.46 1.22v4.58ZM238.36 12.06c0-3.38 1.04-4.85 2.6-4.85 1.38 0 2.02 1.15 2.22 3.5h5.43V2.93h-5.29v.83a5.86 5.86 0 0 0-3.92-1.21c-4.86 0-8.7 3.75-8.7 10.05 0 3.3 1.1 6.04 3.04 7.94 1.96 1.9 4.73 3 8.11 3 2.4 0 4.4-.4 6.62-1.61v-5.55c-2.06 1.42-3.38 1.8-4.86 1.8-1.24 0-2.54-.5-3.52-1.48a6.34 6.34 0 0 1-1.73-4.65ZM249.66 19.43v3.75h8.87v-3.75h-1.19V2.93h-7.68V6.7h1.16v12.74h-1.16ZM260.7 2.94v4.93h6.52V2.94h-6.53Zm-1.16 16.49v3.75h8.9v-3.75h-1.22V9.32h-7.68v3.75h1.15v6.36h-1.15ZM269.4 19.43v3.75h8.7v-3.75h-1.01v-4.71c0-1.01.43-1.65 1.16-1.65.66 0 1.12.67 1.12 1.65v8.46h7.51v-3.75h-.98v-4.65c0-1.16.37-1.7 1.1-1.7.75 0 1.18.6 1.18 1.7v8.4h7.68v-3.75h-1.15v-5.95c0-2.52-1.94-4.45-4.8-4.45-1.53 0-2.77.52-4.53 1.9-1.36-1.41-2.4-1.9-4.13-1.9-1.42 0-2.37.43-4.16 1.79v-1.5h-7.68v3.75h1.15v6.36h-1.15ZM305.95 21.8v1.38h7.77v-3.75h-1.22v-5.46c0-2.31-2.05-4.94-8.06-4.94-2.8 0-4.7.4-6.55.9v3.63c1.47-.69 2.86-1.1 4.56-1.1 2.2 0 3.38 1.02 3.44 2.58a7.72 7.72 0 0 0-3.73-.93c-3.43 0-5.6 1.8-5.6 4.74 0 2.89 1.85 4.59 5 4.59 1.67 0 3.29-.43 4.39-1.65Zm-1.42-1.83c-1.04 0-1.61-.43-1.61-1.41 0-1.01.66-1.5 1.64-1.5.95 0 1.47.49 1.47 1.47 0 1.01-.52 1.44-1.5 1.44ZM315.07 13.07v10.11h8.47v-3.75h-1.94v-6.36h1.94V9.32h-1.94V4.99h-6.53v4.33h-1.3v3.75h1.3ZM339.96 18.8h-4.53c-.58.74-1.19 1.2-2.17 1.2-1.33 0-2.2-.72-2.37-2.34h9.07c.03-.46.06-.9.06-1.35 0-3.99-3.09-7.28-7.77-7.28-4.3 0-7.91 2.63-7.91 7.16 0 2.11.8 3.99 2.4 5.4 1.61 1.45 3.92 1.88 6 1.88 3.35 0 6.27-1.5 7.22-4.68Zm-8.95-4.92c.26-.7.8-1.1 1.56-1.1 1.41 0 1.7 1.22 1.7 2.4v.35h-3.4c0-.72-.03-1.24.14-1.65ZM358.82 18.73h-2.43v-4.07h3.07v-3.2h-3.06V7.37h3.49v2.49h4.68V2.94h-17.59v4.44h1.94v11.35h-1.94v4.45h11.84v-4.45Z" />
  <path fill="currentColor" d="M362.4 16.28c0 4.68 4.1 7.19 8.41 7.19 4.3 0 8.32-2.48 8.32-7.16 0-4.77-3.93-7.28-8.35-7.28-4.36 0-8.37 2.54-8.37 7.25Zm10.2.08c0 1.25-.23 3.18-1.88 3.18-1.64 0-1.79-2.42-1.79-3.58 0-1.15.23-3.18 1.8-3.18 1.78 0 1.87 2.29 1.87 3.58ZM380.18 19.43v3.75h9.24v-3.75h-1.56v-1.39c0-1.59.09-2.17.35-2.66a3 3 0 0 1 1.93-1.33c.81-.2 1.47-.23 3.1-.23v-4.8c-.27-.02-.56-.02-.82-.02-1.93 0-3.32 1.13-4.56 2.45V9.32h-7.68v3.75h1.15v6.36h-1.15ZM405.68 16.65l2.25 6.53h5.43l3.18-10.1h.55V9.31h-5.26v3.75h.8l-1.2 4.19h-.06L409 9.32h-4.01l-3.07 7.94h-.05l-.67-4.19h1.01V9.32h-7.85v3.75h.9l2.53 10.11h5.23l2.66-6.53ZM426 21.8v1.38h7.76v-3.75h-1.2v-5.46c0-2.31-2.06-4.94-8.07-4.94-2.8 0-4.7.4-6.55.9v3.63c1.47-.69 2.86-1.1 4.56-1.1 2.2 0 3.38 1.02 3.44 2.58a7.72 7.72 0 0 0-3.73-.93c-3.43 0-5.6 1.8-5.6 4.74 0 2.89 1.85 4.59 5 4.59 1.67 0 3.29-.43 4.39-1.65Zm-1.42-1.83c-1.04 0-1.62-.43-1.62-1.41 0-1.01.67-1.5 1.65-1.5.95 0 1.47.49 1.47 1.47 0 1.01-.52 1.44-1.5 1.44ZM434.7 19.43v3.75h9.24v-3.75h-1.56v-1.39c0-1.59.08-2.17.34-2.66a3 3 0 0 1 1.94-1.33c.8-.2 1.47-.23 3.09-.23v-4.8c-.26-.02-.55-.02-.8-.02-1.94 0-3.33 1.13-4.57 2.45V9.32h-7.69v3.75h1.16v6.36h-1.16ZM448.23 16.16c0 3.64 1.97 7.3 6 7.3 1.77 0 2.87-.6 4.31-1.55v1.27h7.74v-3.75h-1.21V2.93h-8.09V6.7h1.56v3.78a6.32 6.32 0 0 0-4.07-1.44c-4.04 0-6.24 3.38-6.24 7.13Zm10.43-.17c0 1.33-.3 3.55-2.02 3.55-1.74 0-1.88-2.14-1.88-3.4 0-1.25.35-3.36 2-3.36 1.52 0 1.9 2.05 1.9 3.2Z" />
</svg>
