<svg xmlns="http://www.w3.org/2000/svg" xmlns:xlink="http://www.w3.org/1999/xlink" fill="none" height="40" viewBox="0 0 582 40" width="582">
  <g fill="currentColor">
    <path clip-rule="evenodd" d="m292.141 27.5322c-.806-1.8048-2.688-3.1115-4.606-3.1115-.462 0-1.807 0-3.034.7687.728-1.2287 2.879-3.5328 5.643-5.1828l1.997 1.5355zm2.84-12.8251c-1.073 1.9194-3.57 3.8022-4.952 4.8776l-1.766-1.3828v-5.7208c.69 1.5359 2.381 2.8422 4.224 2.8422 1.076 0 1.652-.1943 2.494-.6162zm1.728 4.838-3.109-2.3405c2.073-1.8048 2.879-4.2256 2.879-5.8756 0-.2307-.038-.652-.076-1.0375h-.384c-.307.8448-.922 1.5755-2.188 1.5755-1.228 0-2.114-.6905-2.88-1.5375l-7.256 3.9563v5.8735l2.688 2.112c-2.727 2.4186-3.227 4.1082-3.227 5.3369 0 1.612.729 2.7656 2.112 3.3037l.193-.3469c-.345-.3073-.653-.4995-.653-1.2287 0-.5375.653-1.3062 1.881-1.3062 1.574 0 2.534 1.0755 3.034 1.6515l6.986-4.1849zm-22.806 1.5043v-7.9089l.269-.1922 3.532 5.5678zm8.064 2.6479-3.955 3.0744-4.109-3.2271v-1.9192l7.641-5.1063v-.2308l-3.801-5.8374-8.332 4.4562v10.9418l5.568 4.0307 7.294-5.7589zm-14.015 2.4588-1.151.7688-1.728-1.5755v-10.9423l1.65-1.2286-.27-.3468-1.418 1.076-3.686-3.4167-4.761 3.3787-3.647-3.3787-4.685 3.3401-2.879-3.3401-4.609 3.2255.232.4218 1.152-.7686 1.573 1.7281v10.4437l-1.266 1.2667 3.685 3.1094 3.571-3.2255-1.459-1.3798v-10.9052l1.383-.9213 2.494 2.3025v9.7532l-1.228 1.2667 3.724 3.1094 3.495-3.2255-1.46-1.3798v-10.9833l1.229-.8068 2.65 2.2661v9.5991l-1.076 1.114 3.764 3.4162 4.952-3.3782zm-26.876.1906-1.229.8068-1.574-1.5734v-11.135l1.536-1.152-.308-.3833-1.189.9213-2.803-3.3401-4.606 3.2255.266.4218 1.152-.7686 1.422 1.7666v10.4438l-2.074 1.5734.23.3073 1.076-.7687 3.532 3.2255 4.838-3.2255zm-4.915-23.84262-.23-.038-3.226 2.7276v.22907l2.726 3.07133h.272l3.222-2.688-.037-.19053zm-19.542 19.35202-1.959.96c-1.112-1.4595-1.843-3.4167-1.843-6.1444 0-1.1124.115-2.4952.462-3.4547l3.378-1.4973zm14.013-17.85468c0-3.185334-2.993-4.108804-5.491-3.99213503v.49946603c1.499.037998 2.651.537999 2.651 1.533869 0 .69213-.5 1.57546-1.997 1.57546-1.191 0-3.494-.69066-5.336-1.30626-2.035-.69054-3.955-1.343204-5.568-1.343204-3.148 0-5.528 2.342134-5.528 5.220794 0 2.34281 1.764 3.18761 2.494 3.49481l.231-.38334c-.461-.3088-.921-.65253-.921-1.57386 0-.69227.614-1.80627 2.226-1.80627 1.459 0 3.38.65253 5.914 1.3828 2.188.61453 4.606 1.19053 5.912 1.3448v4.98995l-2.458 2.0355v.1927l2.458 2.15v6.8729c-1.267.7287-2.727.9213-3.994.9213-2.342 0-4.568-.6145-6.334-2.5733l6.604-3.1876v-11.01812l-8.102 3.60932c.846-2.15 2.534-3.57078 4.262-4.60878l-.115-.38334c-4.799 1.30667-9.177 5.72082-9.177 11.17282 0 6.5277 5.3 11.3652 11.328 11.3652 6.526 0 10.672-5.1068 10.596-10.5204l-.384-.038c-.959 2.0734-2.342 4.0308-4.147 5.0682v-6.6802l2.612-2.0734-.039-.2292-2.573-2.0756v-4.98995c2.381 0 4.876-1.6136 4.876-4.64693zm-44.497 21.42398-2.151 1.6135.269.3073 1.038-.7301 3.608 3.3015 4.838-3.2255-.269-.3454-1.228.8068-1.576-1.5734v-24.918815h-.345l-5.835 3.878135v.34533c.576.34533 1.651.498 1.651 2.4568zm17.737.9213-5.489 3.6094-7.45-11.249 5.262-8.1781.345-.038c.615.614 1.689 1.2667 2.688 1.2667 1.112 0 1.88-.614 2.34-1.2667h.309c-.193 3.264-2.381 5.1068-4.033 5.1068-1.688 0-2.495-.7688-3.377-1.3068l-.5.7307 8.062 11.939 1.615-.9973zm-19.388-15.4724h-.307c-.422.3839-.96.6527-1.421.6527-.615 0-1.421-.3833-1.805-.8813h-.307l-2.725 2.9926-2.803-2.9926-4.761 3.3.23.3833 1.267-.8432 1.651 1.7645v10.1751l-2.151 1.6135.269.3073 1.038-.7301 3.876 3.3015 5.03-3.3402-.23-.3452-1.419.8452-1.883-1.69v-11.3271c.807.8848 1.766 1.6536 2.88 1.6536 2.15 0 3.34-2.3822 3.571-4.8396zm-23.959 13.4771v-11.5197l4.071 2.9186v11.5199zm8.563-10.1749-5.223-3.7256-7.832 4.4942v10.5204l-1.612 1.3062.231.3438 1.267-1.036 5.182 3.8001 7.987-4.8755zm-22.037 11.4416c0 1.3068-.886 2.5714-2.574 2.5714-.269 0-1.038-.0381-1.306-.0745v-9.4464c.385-.3469 1.076-.8828 1.958-.8828.807 0 1.459.4615 1.922.8828zm0-7.5255c-.386-.3833-1.076-.8068-1.922-.8068-.845 0-1.612.5-1.958.8068v-4.2229c.346.3068 1.113.8426 1.958.8426.846 0 1.536-.4577 1.922-.8426zm0-4.7995c-.424.4619-1.115.9219-1.922.9219-.882 0-1.536-.538-1.958-.9219v-7.17809l1.652-1.11413 2.228 2.03387zm6.602-9.94369-1.613 1.45934-3.609-3.14947-5.26 3.91773v-3.68706h-.536l.113 26.14695c-.537-.0766-1.88-.3855-3.109-.5761l-.114-21.84525c0-1.61413-1.154-3.84013-4.033-3.84013-2.956 0-4.875 2.26453-4.875 4.53066h.459c.155-.95986.654-1.80466 1.613-1.80466.999 0 1.844.61413 1.844 2.76413v6.29675c-2.957.1147-4.646 1.7662-4.646 3.8 0 1.2683.575 3.2256 2.649 3.3038l.076-.3855c-.691-.3052-.843-.7287-.843-1.1141 0-.9192.883-1.3026 2.11-1.3026h.577v9.9818c-2.343.8073-3.418 2.5333-3.418 4.4927 0 2.6859 2.15 4.7214 5.299 4.7214 2.227 0 4.146-.3839 6.183-.8453 1.649-.3454 3.645-.7287 4.607-.7287 1.228 0 1.766.5761 1.766 1.4594 0 1.112-.5 1.5354-1.153 1.7281l.077.3833c2.65-.4994 4.186-2.075 4.186-4.4541 0-2.4568-2.343-3.9162-4.952-3.9162-1.346 0-3.995.4219-5.991.8834-2.228.4994-4.492.7286-5.184.7286-1.112 0-2.496-.538-2.496-2.0333 0-1.3448 1.115-2.4193 3.879-2.4193 1.497 0 3.185.2292 5.03.651 1.958.4235 3.686.9615 5.374.9615 2.342 0 4.453-.8453 4.453-4.262v-19.88798l1.881-1.6136zm-29.909 8.86809-1.191.8834-3.071-2.6099-3.571 3.2255 1.459 1.3813v12.1724l-3.916-2.4953v-9.9079l1.267-.8812-3.762-3.4948-3.495 3.2255 1.459 1.3813v11.5577l-.499.3052-3.417-2.4166v-9.7151c0-2.226-1.075-2.8787-2.497-3.762-1.188-.7301-1.728-1.34265-1.728-2.45665 0-.92347.923-1.45947 1.383-1.72813l-.038-.38547c-1.229-.038-4.6468 1.3068-4.7228 4.41775-.0386 1.612.7302 2.3025 1.5354 3.0713.8067.7667 1.5374 1.4953 1.5374 2.8401v9.3302l-1.728 1.3427.2688.3469 1.5742-1.2296 4.261 3.34 4.031-2.726 4.454 2.726 8.563-4.9906v-10.8272l2.112-1.5353zm-34.4778 8.8319v-7.9089l.2688-.1922 3.5328 5.5678zm8.063 2.6479-3.9542 3.0744-4.1088-3.2271v-1.9192l7.6416-5.1063v-.2308l-3.8015-5.8374-8.3324 4.4562v10.5948l-1.65 1.2698.2688.3438 1.4959-1.1901 5.453 3.9542 7.2948-5.7589zm-11.6338-21.15468c0-.5-.1147-.92134-.3052-1.49587h-.3855c-.4995 1.34267-1.1141 2.07187-2.688 2.07187-1.3808 0-2.4568-.8432-3.0328-1.45934l-4.6068 5.33533.3833.34694 1.3052-1.49534c.999.76667 1.7282 1.49534 3.9542 1.53387v13.43852l-9.4443-16.35732c-.7292-1.22813-1.9588-3.0708-4.2235-3.0708-2.5348 0-4.876 2.1896-4.5686 5.87507h.4598c.1162-.998.614-2.07187 1.7282-2.07187.8833 0 1.6901.8432 2.112 1.61187v5.25945c-2.9172 0-4.838 1.3448-4.838 3.7233 0 1.2287.6145 3.3022 2.65 3.6876l.038-.3474c-.2694-.2687-.538-.5739-.538-1.112 0-.8834.6525-1.4594 1.8426-1.4594.1927 0 .7307.0366.8454.0766v6.8344c-3.4167.038-6.0662 1.9193-6.0662 5.1448 0 3.0713 2.6495 4.5307 5.4135 4.376l.038-.3833c-1.7281-.1911-2.6495-.9979-2.6495-2.112 0-1.3828.998-2.1099 2.2662-2.1099 1.3048 0 2.4568.8052 3.2636 1.7282l4.6453-5.1845-.3833-.3468-1.1907 1.3448c-1.7661-1.574-2.7656-2.15-4.7995-2.4573v-16.16455l13.0156 22.69215h.9214v-22.61562c2.4948-.15266 4.8376-2.03386 4.8376-4.83746zm-38.9298 18.50678v-7.9089l.2688-.1922 3.5328 5.5678zm8.0615 2.6479-3.9527 3.0744-4.1088-3.2271v-1.9192l7.6396-5.1063v-.2308l-3.8-5.8374-8.3317 4.4562v10.5948l-1.6521 1.2698.2688.3438 1.4978-1.1901 5.4516 3.9542 7.2963-5.7589zm-29.4855 1.7281-2.1514 1.6135.2686.3073 1.038-.7301 3.609 3.3015 4.8374-3.2255-.2306-.3454-1.2667.8068-1.5735-1.5734v-11.0568l1.3047-.961 2.764 2.226v9.7918c0 6.1041-1.3432 7.1036-4.1088 8.101v.4235c4.5703.1911 8.6776-1.3448 8.6776-9.1772v-10.5203l1.4588-1.1536-.2687-.3437-1.2666.9979-3.9542-3.4167-4.6068 3.4547v-13.284415h-.3474l-5.7187 3.840135v.34533c.5739.34693 1.5353.576 1.5353 2.4948zm-17.08587-3.5693-1.95886.96c-1.1125-1.4595-1.84271-3.4167-1.84271-6.1444 0-1.1124.11459-2.4952.46147-3.4547l3.37812-1.4973zm14.01297-17.85468c0-3.185334-2.9948-4.108804-5.49-3.99213503v.49946603c1.4973.037998 2.6495.537999 2.6495 1.533869 0 .69213-.4995 1.57546-1.997 1.57546-1.1906 0-3.4926-.69066-5.3374-1.30626-2.0334-.69054-3.95265-1.343204-5.5662-1.343204-3.1474 0-5.5302 2.342134-5.5302 5.220794 0 2.34281 1.76667 3.18761 2.49687 3.49481l.23125-.38334c-.46199-.3088-.92344-.65253-.92344-1.57386 0-.69227.61615-1.80627 2.22812-1.80627 1.45939 0 3.37813.65253 5.913 1.3828 2.188.61453 4.6074 1.19053 5.912 1.3448v4.98995l-2.4573 2.0355v.1927l2.4573 2.15v6.8729c-1.2666.7287-2.726.9213-3.9926.9213-2.3423 0-4.56885-.6145-6.335-2.5733l6.6036-3.1876v-11.01812l-8.101 3.60932c.8448-2.15 2.53333-3.57078 4.26147-4.60878l-.11459-.38334c-4.79948 1.30667-9.17708 5.72082-9.17708 11.17282 0 6.5277 5.29896 11.3652 11.3271 11.3652 6.5276 0 10.6745-5.1068 10.5964-10.5204l-.3833-.038c-.96 2.0734-2.3428 4.0308-4.1475 5.0682v-6.6802l2.612-2.0734-.0401-.2292-2.5719-2.0756v-4.98995c2.3808 0 4.876-1.6136 4.876-4.64693z" fill-rule="evenodd"/>
    <path d="m373.446 29.2266h-11.874l-8.164-19.1016h-.079v13.0859h2.383v6.0157h-10.86v-6.0157h2.5v-15.35148h-2.5v-6.01573h15.196l7.305 17.61721h.077v-11.60148h-2.265v-6.01573h10.859v6.01573h-2.578z"/>
    <path d="m386.571 29.6172c-2.813 0-5.939-.5859-8.125-2.5391-2.15-1.914-3.243-4.4525-3.243-7.3047 0-6.1322 4.883-9.6874 10.704-9.6874 6.327 0 10.507 4.453 10.507 9.8442 0 .6244-.039 1.211-.078 1.8355h-12.265c.233 2.1875 1.405 3.164 3.203 3.164 1.328 0 2.148-.6251 2.929-1.6407h6.133c-1.289 4.2969-5.234 6.3282-9.765 6.3282zm-.235-14.4531c-1.016 0-1.758.5468-2.109 1.4844-.235.5468-.196 1.25-.196 2.2265h4.609v-.4688c0-1.6016-.39-3.2421-2.304-3.2421z"/>
    <path d="m422.164 29.2266h-7.344l-3.047-8.8281-3.593 8.8281h-7.071l-3.437-13.672h-1.211v-5.078h10.624v5.078h-1.367l.899 5.6641h.077l4.142-10.7421h5.429l3.204 10.7421h.077l1.64-5.6641h-1.093v-5.078h7.109v5.078h-.742z"/>
    <path d="m449.547 29.7344c-4.57 0-8.32-1.4844-10.976-4.0626-2.617-2.5781-4.102-6.2891-4.102-10.7416 0-8.51558 5.196-13.59425 11.758-13.59425 2.187 0 3.867.46867 5.312 1.64067v-1.13293h7.148v10.50781h-7.342c-.275-3.16395-1.134-4.72648-3.008-4.72648-2.11 0-3.516 1.99213-3.516 6.56248 0 2.8124.937 4.8828 2.344 6.2891 1.328 1.328 3.085 1.9921 4.765 1.9921 1.992 0 3.789-.5078 6.563-2.4218v7.5c-3.008 1.6406-5.703 2.1875-8.946 2.1875z"/>
    <path d="m472.125 29.2266h-11.992v-5.0781h1.562v-17.22668h-1.562v-5.07813h10.39v22.30481h1.602z"/>
    <path d="m485.454 29.2266h-12.032v-5.0781h1.563v-8.5939h-1.563v-5.078h10.391v13.6719h1.641zm-1.641-20.70318h-8.828v-6.67973h8.828z"/>
    <path d="m522.758 29.2266h-10.391v-11.3672c0-1.4844-.585-2.3048-1.601-2.3048-.976 0-1.484.7423-1.484 2.3048v6.2891h1.328v5.0781h-10.156v-11.4453c0-1.3282-.625-2.2267-1.524-2.2267-.976 0-1.563.86-1.563 2.2267v6.3672h1.368v5.0781h-11.758v-5.0781h1.562v-8.5939h-1.562v-5.078h10.39v2.0312c2.423-1.836 3.711-2.4218 5.626-2.4218 2.344 0 3.749.664 5.585 2.5781 2.384-1.8751 4.063-2.5781 6.133-2.5781 3.867 0 6.484 2.6171 6.484 6.0156v8.0469h1.563z"/>
    <path d="m530.375 29.5781c-4.258 0-6.758-2.3047-6.758-6.2109 0-3.9844 2.93-6.4063 7.578-6.4063 2.032 0 3.633.5079 5.04 1.25-.079-2.1093-1.68-3.4765-4.65-3.4765-2.304 0-4.178.5469-6.172 1.4844v-4.9219c2.5-.6641 5.079-1.2109 8.868-1.2109 8.126 0 10.899 3.5552 10.899 6.6797v7.3828h1.64v5.0781h-10.508v-1.875c-1.484 1.6406-3.672 2.2265-5.937 2.2265zm4.062-8.6328c-1.328 0-2.226.6647-2.226 2.0313 0 1.328.781 1.914 2.188 1.914 1.328 0 2.03-.586 2.03-1.953 0-1.3276-.702-1.9923-1.992-1.9923z"/>
    <path d="m559.992 29.2266h-11.446v-13.672h-1.757v-5.078h1.757v-5.85945h8.828v5.85945h2.618v5.078h-2.618v8.5939h2.618z"/>
    <path d="m571.945 29.6172c-2.812 0-5.938-.5859-8.126-2.5391-2.148-1.914-3.241-4.4525-3.241-7.3047 0-6.1322 4.883-9.6874 10.703-9.6874 6.328 0 10.508 4.453 10.508 9.8442 0 .6244-.04 1.211-.079 1.8355h-12.265c.234 2.1875 1.406 3.164 3.202 3.164 1.328 0 2.148-.6251 2.93-1.6407h6.133c-1.289 4.2969-5.235 6.3282-9.765 6.3282zm-.235-14.4531c-1.016 0-1.757.5468-2.109 1.4844-.235.5468-.195 1.25-.195 2.2265h4.609v-.4688c0-1.6016-.39-3.2421-2.305-3.2421z"/>
    <path d="m318.537 15.4341 2.696-8.91042h.078l2.15 8.91042zm16.571 7.7776-3.908-15.35935h1.133v-6.0188h-18.514v6.0188h1.63l-5.276 15.35935h-1.485v6.0188h10.082v-6.0188h-2.578l1.094-3.5958h7.191l.86 3.5958h-2.423v6.0188h13.561v-6.0188z"/>
  </g>
</svg>
