<svg xmlns="http://www.w3.org/2000/svg" xmlns:xlink="http://www.w3.org/1999/xlink" role="presentation" viewBox="0 0 433 31" width="433" height="31">
  <path fill="currentColor" d="M17.54 3.23c0-2.49-2.5-3.26-4.37-3.18v.22c1.2 0 2.12.57 2.12 1.37 0 .8-.4 1.27-1.6 1.27a17.37 17.37 0 0 1-4-1.05C8.3 1.3 6.8.93 5.29.8A4.26 4.26 0 0 0 .85 4.95a2.88 2.88 0 0 0 2.03 2.73c-.33-.32-.58-.6-.58-1.4a1.59 1.59 0 0 1 1.78-1.56c1.6.19 3.2.55 4.72 1.1 1.52.45 3.07.81 4.64 1.07v4.05l-1.94 1.62 1.94 1.69v5.54a6.5 6.5 0 0 1-3.17.77 6.32 6.32 0 0 1-5-2.08l5.3-2.5V7.14L4.1 10a7.9 7.9 0 0 1 3.3-3.8 9.75 9.75 0 0 0-7.34 8.78 8.92 8.92 0 0 0 5.51 8.33 9.03 9.03 0 0 0 6.67.12 8.02 8.02 0 0 0 5-7.78 9.07 9.07 0 0 1-3.55 4.03v-5.42l2.05-1.64-2.05-1.67V6.89a3.66 3.66 0 0 0 3.85-3.66ZM6.65 17.53l-1.6.77a8.03 8.03 0 0 1-1.55-4.97 9.9 9.9 0 0 1 .5-3.01l2.67-1.25-.02 8.46Zm24.2-7.14-1.02.8-3.05-2.71-3.57 2.73V.64L18.4 3.95a1.62 1.62 0 0 1 1.22 1.8v14.6l-1.67 1.16.18.15.82-.6 2.87 2.74 3.87-2.49v-.2l-1 .65-1.34-1.34v-8.86l.92-.67 2.12 1.82v7.63c0 4.98-1.07 5.87-3.27 6.67 3.65.15 6.92-1.07 6.92-7.32v-8.13l1.1-.87-.27-.3Zm6.5 13.38 5.6-4.5-.15-.25-2.93 2.49-3.37-2.79v-1.64L42.32 13l-2.95-4.55-6.47 3.53v8.44l-1.24.97.14.17 1.2-.95 4.35 3.16Zm-.85-7.01v-6.4l2.8 4.41-2.8 1.99ZM66.15 2.04c-.02-.41-.1-.82-.25-1.2-.4 1.07-.82 1.67-2.07 1.67a3.4 3.4 0 0 1-2.5-1.17l-3.7 4.25.18.15 1.05-1.2a4.7 4.7 0 0 0 3.27 1.35v10.65l-7.5-12.99a4.08 4.08 0 0 0-3.3-2.48c-2.01 0-3.56 1.74-3.31 4.67h.12c.15-.72.58-1.64 1.48-1.64s1.27.67 1.62 1.27V9.6c-2.32 0-3.65 1.07-3.65 2.9a2.78 2.78 0 0 0 2.15 2.7 1 1 0 0 1-.42-.83c0-.7.52-1.1 1.47-1.1h.45v5.4c-2.72 0-4.85 1.52-4.85 4.08a3.64 3.64 0 0 0 2.77 3.4c.5.13 1.04.15 1.55.06-1.37-.15-2.07-.85-2.07-1.86a1.61 1.61 0 0 1 1.8-1.67 3.28 3.28 0 0 1 2.5 1.37l3.67-4.13-.15-.15-.95 1.07a6.88 6.88 0 0 0-3.95-2.07V5.82l10.4 18.03h.55V5.89a3.9 3.9 0 0 0 3.77-3.85h-.13Zm3.6 21.73 5.5-4.5-.25-.25-2.85 2.49-3.37-2.79v-1.64L74.6 13l-2.95-4.55-6.45 3.53v8.44l-1.27 1.09.15.17 1.2-.94 4.47 3.03Zm-.85-7.01v-6.4l2.82 4.41-2.82 1.99Zm26.25-6.84-.84.62-2.5-2.06-2.85 2.48 1.15 1.1v9.62l-2.9-1.99v-7.73l1-.7-3-2.78-2.72 2.56 1.17 1.1v9.37h-.2l-2.72-1.99v-7.46c0-1.77-.9-2.29-2.02-3.01-1.13-.72-1.45-1.12-1.45-2.01a1.74 1.74 0 0 1 1.12-1.52 3.93 3.93 0 0 0-3.77 3.3 2.95 2.95 0 0 0 1.25 2.5 3.01 3.01 0 0 1 1.25 2.23v7.46l-1.33 1.02.15.18 1.25-1 3.3 2.61 3.12-2.16 3.43 2.16 6.74-3.95v-8.6l1.5-1.18-.13-.17Zm22.49-7.24-1.3 1.17-2.88-2.49-3.8 3.09V1.6h-.22v20.87c-.45 0-1.32-.3-2.3-.45V4.47a3.02 3.02 0 0 0-2-2.85c-.39-.14-.8-.2-1.22-.18a3.68 3.68 0 0 0-3.74 3.58 1.54 1.54 0 0 1 1.4-1.42c.8 0 1.47.48 1.47 2.2v4.97a3.25 3.25 0 0 0-3.5 2.9 2.33 2.33 0 0 0 2.17 2.5c-.55-.26-.67-.53-.67-.83 0-.74.72-.97 1.7-.97h.25v7.91a3.55 3.55 0 0 0-2.75 3.43 3.85 3.85 0 0 0 2.67 3.6c.5.17 1.05.23 1.58.18 1.57-.03 3.13-.25 4.64-.67a23.5 23.5 0 0 1 3.53-.57c1 0 1.42.42 1.42 1.12 0 .7-.35 1.34-.88 1.5v.12a3.55 3.55 0 0 0 3.35-3.51 3.53 3.53 0 0 0-3.94-3.13c-1.56.08-3.11.31-4.63.7-1.27.3-2.56.48-3.87.56-.9 0-2-.37-2-1.56 0-1.2.9-1.94 3.1-1.94 1.3.03 2.59.2 3.85.52 1.29.41 2.62.68 3.97.8 1.87 0 3.37-.68 3.37-3.39V4.1l1.38-1.27-.15-.15Zm-5.17 8.38a1.73 1.73 0 0 1-2.16.49 1.95 1.95 0 0 1-.64-.49V4.75l.92-.65 1.88 1.6v5.36Zm0 2.99a1.74 1.74 0 0 0-1.38-.6 2.1 2.1 0 0 0-1.42.6v-2.66c.39.36.9.57 1.42.6a1.83 1.83 0 0 0 1.38-.6v2.66Zm0 6.3a1.96 1.96 0 0 1-1.88 2.2c-.3.03-.61.03-.92 0v-8.18c.37-.39.88-.62 1.42-.64a1.86 1.86 0 0 1 1.38.64v5.97Zm10.91 3.4 6.25-3.88V11.4l-4.05-2.96-6.25 3.56v8.4l-1.22 1.1.13.17 1-.82 4.14 2.89Zm-.47-4.4v-9l3.12 2.3v9.03l-3.12-2.33Zm18.66-10.72c-.4.3-.88.45-1.38.44a1.96 1.96 0 0 1-1.4-.7l-2.32 2.5-2.35-2.5-3.8 2.74.13.2 1.03-.67 1.37 1.5v8.2l-1.65 1.17.15.15.83-.6 3.1 2.64 3.91-2.49-.12-.2-1.02.62-1.58-1.44v-9a3.24 3.24 0 0 0 2.25 1.32c1.6 0 2.67-1.9 2.85-3.86v-.02Zm14.79 12.18-1.18.7-6.47-9.58.35-.37c.76.63 1.71.99 2.7 1.02a3.9 3.9 0 0 0 3.17-4.1 2.5 2.5 0 0 1-2.12 1.02 3.25 3.25 0 0 1-2.1-1.02l-4.4 6.46 5.85 8.88 4.32-2.8-.12-.2Zm-7.85.23-1 .64-1.35-1.34V.64l-4.82 3.31a1.63 1.63 0 0 1 1.23 1.8v14.6l-1.68 1.16.18.15.82-.6 2.88 2.64 3.87-2.49-.13-.17Zm28.46-17.81c0-2.49-2.5-3.26-4.4-3.18v.22c1.2 0 2.12.57 2.12 1.37 0 .8-.4 1.27-1.6 1.27a17.2 17.2 0 0 1-3.97-1.05A15.46 15.46 0 0 0 164.68.8a4.27 4.27 0 0 0-4.43 4.16 2.88 2.88 0 0 0 2.03 2.73c-.38-.22-.63-.5-.63-1.3a1.61 1.61 0 0 1 1.78-1.56c1.6.18 3.2.55 4.72 1.1 1.53.45 3.09.81 4.67 1.07v3.95l-1.97 1.62 1.97 1.69v5.54c-.99.52-2.08.79-3.2.77a6.32 6.32 0 0 1-5-2.08l5.3-2.5V7.14L163.5 10a7.95 7.95 0 0 1 3.32-3.8 9.75 9.75 0 0 0-7.34 8.88c0 2.36.95 4.63 2.63 6.3a9.01 9.01 0 0 0 9.55 2.04 8.04 8.04 0 0 0 5-7.77 9.06 9.06 0 0 1-3.47 4.03v-5.42l2.05-1.64-2.05-1.67V6.89a3.69 3.69 0 0 0 3.88-3.66h-.1Zm-10.92 14.3-1.5.77a8.04 8.04 0 0 1-1.52-4.97 9.1 9.1 0 0 1 .4-3.01l2.64-1.25-.02 8.46ZM180.89 2.3l-2.7 2.26 2.3 2.49 2.7-2.27-2.3-2.48Zm4.02 18.75-.98.64-1.34-1.34v-8.78l1.12-.87-.15-.2-.95.75-2.22-2.66-3.67 2.48v.23l.92-.62 1.22 1.51v8.16l-1.45 1.17.15.15.83-.6 2.9 2.64 3.84-2.49-.22-.17Zm20.68 0-.85.47-1.42-1.37v-8.58l1.15-.87-.15-.2-1.03.8-3.07-2.81-3.47 2.68-3.02-2.68-3.4 2.66-2.3-2.66-3.7 2.48v.23l.93-.62 1.32 1.49v8.26l-1.02 1.02 2.95 2.48 2.84-2.48-1.15-1.1v-8.83l.75-.54 2.13 1.81v7.64l-.98 1.02 2.97 2.48 2.78-2.48-1.15-1.1v-8.83l.72-.57 2.15 1.84v7.46l-.85.9 3 2.7 3.95-2.68-.08-.02Zm10.77-2.02-2.92 2.49-3.38-2.79v-1.64l5.82-4.08-2.94-4.55-6.47 3.53v8.58l4.44 3.21 5.62-4.5-.17-.25Zm-6.3-2.31v-6.34l2.83 4.4-2.83 1.94Zm17.49-1.22-2.5-1.89a6.16 6.16 0 0 0 2.32-5.35 1.94 1.94 0 0 1-1.9 1.25 2.8 2.8 0 0 1-2.17-1.22l-5.92 3.28v4.48l2.18 1.71c-2.18 1.92-2.5 3.11-2.5 4.2a2.66 2.66 0 0 0 1.75 2.5v-.18a1.07 1.07 0 0 1-.53-.97 1.27 1.27 0 0 1 1.4-1.1 3.16 3.16 0 0 1 2.5 1.32l5.44-3.3-.07-4.73Zm-1.3-3.78a14.96 14.96 0 0 1-3.87 3.93l-1.4-1.17V10a3.58 3.58 0 0 0 3.17 2.27c.73.02 1.44-.15 2.08-.5l.02-.05Zm-2.37 10.12a4.01 4.01 0 0 0-3.57-2.48 4.49 4.49 0 0 0-2.5.57 14.48 14.48 0 0 1 4.57-4.03l1.5 1.24v4.7ZM359.68 18.58h-9.57v-3.93h5.82v-4.38h-5.82v-4h9.15V1.94h-14.52v21h14.94v-4.35Z" />
  <path fill="currentColor" d="m370.59 7.63-3.12 9.03-2.82-9.03h-5.49l5.79 15.3h3.81l5.79-15.3h-3.96ZM388.64 15.19c0-4.77-3.06-7.83-7.23-7.83-4.3 0-7.5 3.39-7.5 8 0 4.66 2.97 7.84 7.77 7.84 3 0 5.25-1.32 6.9-4l-3.12-1.37c-1 1.62-2.04 2.22-3.54 2.22-1.65 0-2.88-1.38-2.88-3.4v-.38h9.6v-1.08Zm-9.7-1.62c0-1.44.7-3.1 2.56-3.1 1.65 0 2.22 1.27 2.22 3.1h-4.77ZM404.6 12.22c0-3-1.6-4.86-4.18-4.86-1.35 0-3.12.54-4.98 2.73V7.63h-5.04v15.3h5.14V12.28c1.13-.9 1.73-1.14 2.36-1.14.9 0 1.54.54 1.54 2.19v9.6h5.16V12.22ZM417.08 19.3c-.33.03-.93.12-1.35.12-1.77 0-2.2-.42-2.2-2.34V11.1h3.55V7.63h-3.54V2.56H409l-.45 5.07h-2.61v3.48h2.46v8.3c0 2.7 2.3 3.79 5.07 3.79 1.1 0 1.92-.1 3.6-.4v-3.5ZM432.17 17.98c0-2.7-2.3-4.11-4.2-4.5a46.2 46.2 0 0 0-3.45-.63c-1.14-.15-1.62-.54-1.62-1.14 0-.42.51-1.2 2.16-1.2 1.68 0 2.67.63 3.33 1.74l3.06-1.8c-1.62-2.22-3.24-3.1-6.39-3.1-3.2 0-6.72 1.63-6.72 5.2 0 2.43 1.62 3.54 3.42 4.2 1.11.39 2.85.54 4.32.78 1.14.2 1.47.6 1.47 1.1 0 .67-.84 1.36-2.55 1.36-2.04 0-3.3-.9-3.96-2.07l-3.06 1.92c1.53 2.64 3.93 3.36 7.05 3.36 4.3 0 7.14-2.04 7.14-5.22ZM250.1 15.25c-.6 2.4-2.03 3.8-4.01 3.8-1.68 0-2.97-.86-3.54-2.84-.21-.7-.36-2.2-.36-3.75 0-1.47.12-2.82.39-3.78.48-1.8 1.56-2.94 3.24-2.94 2.34 0 3.06 1.77 3.18 3.63l5-.48c-.5-4.05-3.23-7.35-8.1-7.35-2.7 0-4.94.99-6.6 2.76-1.91 2.1-2.78 4.68-2.78 8.22 0 3.18.69 5.43 2.19 7.4a8.25 8.25 0 0 0 6.75 3.4c4.17 0 7.47-2.01 8.73-7.17l-4.08-.9ZM260.9 1.93h-5.16v21h5.16v-21ZM268.91 1.54h-5.19v3.93h5.2V1.54Zm-.03 6.3h-5.16v15.09h5.16V7.83ZM294.77 12.22c0-3-1.56-4.86-4.13-4.86-1.32 0-3.13.5-5.1 2.97a3.8 3.8 0 0 0-3.9-2.97c-1.35 0-3.1.54-4.95 2.73V7.63h-5.05v15.3h5.13V12.28c1.15-.9 1.72-1.14 2.35-1.14.9 0 1.52.54 1.52 2.19v9.6h5.13V12.28c1.06-.87 1.75-1.14 2.35-1.14.9 0 1.52.54 1.52 2.19v9.6h5.13V12.22ZM311.18 22.66a8.51 8.51 0 0 1-.45-2.88v-7.41c0-1.65-.42-2.7-1.44-3.6-1.14-.96-2.88-1.41-5.49-1.41-3.78 0-5.88 1.5-6.8 4.29l4.52.93c.3-1.47 1.14-2.07 2.28-2.07 1.11 0 1.83.69 1.83 2v.9c-6.93.22-9.2 2.59-9.2 5.47 0 2.49 1.8 4.32 4.34 4.32 1.47 0 3.06-.45 4.98-1.83l.24 1.56h5.2v-.27Zm-5.52-3.42c-1.05.6-1.44.8-2.34.8-.87 0-1.56-.65-1.56-1.64 0-1.77 1.6-2.5 3.9-2.5v3.34ZM323.12 19.3c-.33.03-.93.12-1.35.12-1.77 0-2.2-.42-2.2-2.34V11.1h3.55V7.63h-3.54V2.56h-4.53l-.45 5.07h-2.61v3.48h2.46v8.3c0 2.7 2.3 3.79 5.07 3.79 1.1 0 1.92-.1 3.6-.4v-3.5ZM338.87 15.19c0-4.77-3.06-7.83-7.23-7.83-4.29 0-7.5 3.39-7.5 8 0 4.66 2.97 7.84 7.77 7.84 3 0 5.25-1.32 6.9-4l-3.12-1.37c-.99 1.62-2.04 2.22-3.54 2.22-1.65 0-2.88-1.38-2.88-3.4v-.38h9.6v-1.08Zm-9.69-1.62c0-1.44.7-3.1 2.55-3.1 1.65 0 2.22 1.27 2.22 3.1h-4.77Z" />
</svg>
