<svg fill="none" height="407" viewBox="0 0 374 407" width="374" xmlns="http://www.w3.org/2000/svg" xmlns:xlink="http://www.w3.org/1999/xlink"><clipPath id="a"><path d="m0 0h374v407h-374z"/></clipPath><g clip-path="url(#a)"><path d="m374 407v-407h-374v407z" fill="#000"/><path d="m65.467 105.786h210.256v-105.786" stroke="#fff" stroke-miterlimit="10" stroke-width="2"/><path d="m374 147.47h-98.311v152.404h98.311" stroke="#fff" stroke-miterlimit="10" stroke-width="2"/><path d="m0 252.374h64.77v-58.693h-64.77" stroke="#fff" stroke-miterlimit="10" stroke-width=".75"/><path d="m155.754 105.786v-105.786" stroke="#fff" stroke-miterlimit="10" stroke-width=".75"/><path d="m275.111 197.412h98.889" stroke="#fff" stroke-miterlimit="10" stroke-width=".75"/><path d="m275.111 249.932h98.889" stroke="#fff" stroke-miterlimit="10" stroke-width=".75"/><path d="m111.129 301.553v-132.75h23.647v24.878h83.623v-24.878h23.63v132.75" stroke="#fff" stroke-miterlimit="10" stroke-width=".75"/><path d="m67.201 301.231h-67.201" stroke="#fff" stroke-miterlimit="10" stroke-width="2"/><path d="m111.129 301.231h-43.928" stroke="#fff" stroke-miterlimit="10" stroke-width="2"/><path d="m275.723 299.874h-33.32" stroke="#fff" stroke-miterlimit="10" stroke-width="2"/><path d="m275.723 299.874v107.126" stroke="#fff" stroke-miterlimit="10" stroke-width="2"/><path d="m275.723 105.786v41.684" stroke="#fff" stroke-miterlimit="10" stroke-width="2"/><path d="m64.77 193.681v-193.681" stroke="#fff" stroke-miterlimit="10" stroke-width=".75"/><path d="m64.77 223.036h-64.77" stroke="#fff" stroke-miterlimit="10" stroke-width=".75"/><path d="m62.424 231.159v14.347h4.6919v-14.347z" fill="#000"/><path d="m62.424 201.058v14.347h4.6919v-14.347z" fill="#000"/><path d="m108.783 231.159v14.347h4.692v-14.347z" fill="#000"/><path d="m158.236 191.341h-14.382v4.68h14.382z" fill="#000"/><path d="m183.77 191.341h-14.382v4.68h14.382z" fill="#000"/><path d="m209.321 191.341h-14.382v4.68h14.382z" fill="#000"/><path d="m239.7 231.142v14.347h4.692v-14.347z" fill="#000"/><path d="m188.122 103.446h-14.382v4.68h14.382z" fill="#000"/><path d="m118.388 103.446h-14.382v4.68h14.382z" fill="#000"/><path d="m67.116 60.0665v-14.3468h-4.692v14.3468z" fill="#000"/><path d="m216.138 103.446h-14.382v4.68h14.382z" fill="#000"/><path d="m244.154 103.446h-14.382v4.68h14.382z" fill="#000"/><path d="m273.343 216.49v14.347h4.692v-14.347z" fill="#000"/><path d="m273.343 165.259v14.346h4.692v-14.346z" fill="#000"/><path d="m273.36 267.738v14.347h4.692v-14.347z" fill="#000"/><path d="m273.36 322.734v14.347h4.692v-14.347z" fill="#000"/><path d="m109.956 407 31.059-30.983v-43.803l-31.059-30.983" stroke="#fff" stroke-miterlimit="10" stroke-width=".75"/><path d="m138.669 346.934v14.346h4.692v-14.346z" fill="#000"/><path d="m109.956 301.231h-43.911" stroke="#fff" stroke-miterlimit="10" stroke-width=".75"/><path d="m99.127 298.891h-14.382v4.68h14.382z" fill="#000"/><path d="m63.7159 252.425v48.84" stroke="#fff" stroke-miterlimit="10" stroke-width="2"/><g fill="#fff"><path d="m6.47694 208.265s1.105-3.171 1.292-3.663c.272-.814.748-1.221 1.394-1.221h1.03696 1.054c.646 0 1.105.407 1.394 1.221.17.509 1.275 3.646 1.292 3.663.102.306.068.509-.119.645-.187.135-.476.051-.68-.356-.068-.136-.918-1.832-1.445-3.036 0-.034-.068-.017-.068.017.136 2.306.408 1.696.986 4.596.034.203-.119.39-.323.39h-.459v4.358c0 .373-.289.695-.68.712-.408 0-.629-.322-.629-.712v-4.358h-.59496v4.409c0 .356-.289.661-.646.661-.391 0-.663-.322-.663-.712v-4.358h-.459c-.204 0-.374-.187-.323-.39.578-2.968.799-2.34.935-4.596 0-.034-.034-.051-.051 0s-1.292 2.985-1.326 3.07c-.153.288-.476.44-.731.339-.17-.085-.272-.356-.17-.662"/><path d="m8.94189 201.736c0 .696.561 1.238 1.24101 1.238.68 0 1.241-.559 1.241-1.238 0-.678-.561-1.237-1.241-1.237-.68001 0-1.24101.559-1.24101 1.237z"/><path d="m23.4089 201.821c0 .729.595 1.34 1.343 1.34s1.343-.594 1.343-1.34-.595-1.34-1.343-1.34-1.343.594-1.343 1.34z"/><path d="m25.3129 203.585h-1.105c-.4412 0-.799.357-.799.797v4.647c0 .44.3578.797.799.797h1.105c.4413 0 .799-.357.799-.797v-4.647c0-.44-.3577-.797-.799-.797z"/><path d="m23.4089 208.418v.899c0 .346.2816.627.629.627h4.59c.3474 0 .629-.281.629-.627v-.899c0-.346-.2816-.627-.629-.627h-4.59c-.3474 0-.629.281-.629.627z"/><path d="m28.8659 208.164h-.6119c-.2254 0-.4081.182-.4081.407v5.002c0 .225.1827.407.4081.407h.6119c.2254 0 .408-.182.408-.407v-5.002c0-.225-.1826-.407-.408-.407z"/><path d="m21.3689 204.891c.357-.187.816-.051 1.02.305s.051.814-.306 1.018l-.697-1.323z"/><path d="m26.299 213.709c.357-.186.8159-.051 1.0199.305.204.357.0511.814-.3059 1.018l-.6971-1.323z"/><path d="m24.242 214.15c-2.38-.085-4.25-2.086-4.165-4.46.051-1.459.833-2.73 1.989-3.477l-.697-1.322c-1.598.983-2.703 2.73-2.788 4.731-.119 3.205 2.397 5.902 5.61 6.02.986.034 1.955-.186 2.822-.61l-.697-1.323c-.629.305-1.343.458-2.057.441z"/><path d="m24.208 231.261c0 .729.595 1.339 1.343 1.339s1.343-.593 1.343-1.339c0-.747-.595-1.34-1.343-1.34s-1.343.593-1.343 1.34z"/><path d="m26.112 233.024h-1.105c-.4413 0-.799.357-.799.797v4.647c0 .44.3577.797.799.797h1.105c.4413 0 .799-.357.799-.797v-4.647c0-.44-.3577-.797-.799-.797z"/><path d="m24.225 237.84v.899c0 .347.2816.628.629.628h4.59c.3473 0 .629-.281.629-.628v-.899c0-.346-.2817-.627-.629-.627h-4.59c-.3474 0-.629.281-.629.627z"/><path d="m29.665 237.586h-.612c-.2253 0-.408.182-.408.407v5.003c0 .224.1827.407.408.407h.612c.2254 0 .408-.183.408-.407v-5.003c0-.225-.1826-.407-.408-.407z"/><path d="m22.1681 234.313c.357-.186.816-.051 1.02.305.204.357.051.814-.306 1.018l-.697-1.323z"/><path d="m27.098 243.132c.357-.187.816-.051 1.02.305s.051.814-.306 1.017l-.697-1.322z"/><path d="m25.041 243.572c-2.38-.085-4.25-2.086-4.165-4.46.051-1.458.833-2.73 1.989-3.476l-.697-1.323c-1.598.984-2.703 2.73-2.788 4.731-.119 3.206 2.397 5.902 5.61 6.021.986.033 1.955-.187 2.822-.611l-.697-1.323c-.629.306-1.343.458-2.057.441z"/><path d="m9.367 232.719h3.264c.782 0 1.428.645 1.428 1.425v4.443c.034.339-.221.61-.544.61h-.034c-.34 0-.442-.203-.442-.525v-4.443h-.017c0-.085-.068-.221-.204-.221s-.187.102-.204.153v10.158c0 .407-.255.729-.663.729s-.663-.322-.663-.729v-5.8h-.612v5.8c0 .407-.306.729-.714.729s-.578-.322-.578-.729c0-9.582 0-4.104 0-10.158 0-.068-.068-.204-.204-.221-.119 0-.221.085-.221.153v4.443c0 .339-.119.644-.459.644s-.578-.271-.578-.593v-4.443c0-.78.646-1.425 1.428-1.425"/><path d="m9.74097 231.057c0 .695.56103 1.255 1.25803 1.255s1.258-.56 1.258-1.255-.561-1.255-1.258-1.255-1.25803.56-1.25803 1.255z"/></g><path d="m251.974 92.7958c7.463-8.6657 12.716-24.9626 12.716-42.1584 0-17.2127-5.253-33.4927-12.716-42.1584" opacity=".4" stroke="#fff" stroke-miterlimit="10" stroke-width=".75"/><path d="m176.579 211.843 3.927 3.324 5.117.407.408 5.122 3.349 3.9-3.349 3.9-.408 5.122-5.117.407-3.927 3.324-3.91-3.324-5.134-.407-.408-5.122-3.332-3.9 3.332-3.9.408-5.122 5.134-.407z" opacity=".4" stroke="#fff" stroke-miterlimit="10" stroke-width=".75"/><path d="m65.467 350.122h-6.171v-5.206l-8.534 8.513 8.534 8.513v-5.207h6.171z" fill="#fff"/><path d="m207.536 360.754v-6.155h5.219l-8.534-8.514-8.534 8.514h5.219v6.155z" fill="#fff"/><path d="m308.397 326.6h-6.154v-5.206l-8.534 8.513 8.534 8.513v-5.206h6.154z" fill="#fff"/></g></svg>