<svg viewBox="0 0 170 140" xmlns="http://www.w3.org/2000/svg"><path d="m0 0h170v140h-170z"/><g fill="none" stroke="#fff" stroke-miterlimit="10"><path d="m108.69 98.26v-30" stroke-width=".75"/><path d="m108.69 98.26h17.56" stroke-width=".75"/><path d="m14.77 37.58h54.83v31.05 29.63h39.09" stroke-width=".75"/><path d="m15.77 37.58v60.06h-15.77" stroke-width="2"/><path d="m93.09 131.57v6.62" stroke-width=".75"/><path d="m80.17 131.57v6.62" stroke-width=".75"/><path d="m84.48 131.57v6.62" stroke-width=".75"/><path d="m88.79 131.57v6.62" stroke-width=".75"/><path d="m75.86 131.57v6.62" stroke-width=".75"/><path d="m69.6 128.13h29.25" stroke-width="2"/><path d="m69.6 140v-12.87" stroke-width=".75"/></g><path d="m113.04 96.88h8.46v2.76h-8.46z" transform="matrix(-1 0 0 -1 234.53 196.53)"/><path d="m104.17 92.28h8.46v2.76h-8.46z" transform="matrix(0 -1 1 0 14.74 202.05)"/><path d="m0 112.87h41.97v27.13" fill="none" stroke="#fff" stroke-miterlimit="10" stroke-width=".75"/><path d="m29.51 111.49h8.46v2.76h-8.46z" transform="matrix(-1 0 0 -1 67.47 225.73)"/><path d="m69.6 68.26h56.65v71.74" fill="none" stroke="#fff" stroke-miterlimit="10" stroke-width="2"/><path d="m36.29 46.32v-6.62" fill="none" stroke="#fff" stroke-miterlimit="10" stroke-width=".75"/><path d="m49.21 46.32v-6.62" fill="none" stroke="#fff" stroke-miterlimit="10" stroke-width=".75"/><path d="m44.9 46.32v-6.62" fill="none" stroke="#fff" stroke-miterlimit="10" stroke-width=".75"/><path d="m40.59 46.32v-6.62" fill="none" stroke="#fff" stroke-miterlimit="10" stroke-width=".75"/><path d="m53.52 46.32v-6.62" fill="none" stroke="#fff" stroke-miterlimit="10" stroke-width=".75"/><path d="m59.78 49.17h-29.24" fill="none" stroke="#fff" stroke-miterlimit="10" stroke-width="2"/><path d="m59.39 37.3v12.87" fill="none" stroke="#fff" stroke-miterlimit="10" stroke-width=".75"/><path d="m108.69 85.77h17.56" fill="none" stroke="#fff" stroke-miterlimit="10" stroke-width=".75"/><path d="m15.77 98.26h38.52v-30h-38.52" fill="none" stroke="#fff" stroke-miterlimit="10" stroke-width=".75"/><path d="m50.06 88.65h8.46v2.76h-8.46z" transform="matrix(0 1 -1 0 144.32 35.74)"/></svg>