<svg viewBox="0 0 170 141" xmlns="http://www.w3.org/2000/svg"><path d="m0 0h170v141h-170z"/><path d="m0 76.61h4.96v33.41h-4.96z" fill="#fff"/><path d="m162.38 112.27h4.96v20.53h-4.96z" fill="#fff"/><path d="m152.09 122.51h4.96v25.54h-4.96z" fill="#fff" transform="matrix(0 1 -1 0 289.84 -19.29)"/><path d="m62.51 6.21h4.96v13.59h-4.96z" fill="#fff"/><path d="m138.88 6.21h4.96v13.59h-4.96z" fill="#fff"/><path d="m0 55.18h94.8v76.26h-94.8" fill="none" stroke="#fff" stroke-miterlimit="10" stroke-width="2"/><path d="m94.8 66.89h10.27v52.85h-10.27" fill="none" stroke="#fff" stroke-miterlimit="10" stroke-width="2"/><path d="m47.02 53.8h8v2.76h-8z"/><path d="m30.49 53.8h8v2.76h-8z"/><path d="m88.23 0h8v2.76h-8z" fill="#fff"/><path d="m102.51 0h8v2.76h-8z" fill="#fff"/><path d="m47.02 130.07h8v2.76h-8z"/><path d="m90.57 91.93h8.46v2.76h-8.46z" transform="matrix(0 1 -1 0 188.11 -1.48)"/><path d="m100.85 91.93h8.46v2.76h-8.46z" transform="matrix(0 1 -1 0 198.39 -11.76)"/><path d="m30.49 130.07h8v2.76h-8z"/><g fill="none" stroke="#fff" stroke-miterlimit="10"><path d="m62.51 40.13h73.72" stroke-width=".75"/><path d="m62.51 35.82h73.72" stroke-width=".75"/><path d="m62.51 44.44h73.72" stroke-width=".75"/><path d="m157.23 67.96h10.29" stroke-width=".75"/><path d="m157.23 63.65h10.29" stroke-width=".75"/><path d="m157.23 59.34h10.29" stroke-width=".75"/><path d="m157.23 72.27h10.29" stroke-width=".75"/><path d="m157.23 85.19h10.29" stroke-width=".75"/><path d="m157.23 80.87h10.29" stroke-width=".75"/><path d="m157.23 76.56h10.29" stroke-width=".75"/><path d="m157.23 89.5h10.29" stroke-width=".75"/><path d="m153.36 96.25v-42.05" stroke-width="2"/><path d="m170 96.25-17.65.01" stroke-width=".75"/><path d="m0 45.43h60.05v-45.43" stroke-width=".75"/><path d="m138.62 44.81h31.38" stroke-width="2"/><path d="m138.62 33.8v12.01" stroke-width=".75"/><path d="m159.08 44.8v-10.03h-12.86v10.03" stroke-width="2"/></g><path d="m148.65 43.42h8v2.76h-8z"/><path d="m148.65 33.39h8v2.76h-8z"/><path d="m146.22 0v19.36h23.78" fill="none" stroke="#fff" stroke-miterlimit="10" stroke-width=".75"/><path d="m152.43 36.66-1.15 1.99c-.1.17.02.38.22.38h2.29c.19 0 .31-.21.22-.38l-1.15-1.99c-.1-.17-.34-.17-.44 0z" fill="#fff"/><path d="m152.87 42.91 1.15-1.99c.1-.17-.02-.38-.22-.38h-2.29c-.19 0-.31.21-.22.38l1.15 1.99c.1.17.34.17.44 0z" fill="#fff"/></svg>