<svg viewBox="0 0 170 141.06" xmlns="http://www.w3.org/2000/svg"><path d="m0 36.36h103.04v105.22h-103.04z"/><path d="m103.04 36.36h66.96v105.22h-66.96z"/><path d="m84.58 17.65h85.42v18.71h-85.42z"/><path d="m0 0h170v17.65h-170z"/><path d="m0 17.65h84.58v18.71h-84.58z"/><path d="m122.28 17.65v-17.65" fill="none" stroke="#fff" stroke-miterlimit="10" stroke-width=".75"/><path d="m157.23 74.49h10.29" fill="none" stroke="#fff" stroke-miterlimit="10" stroke-width=".75"/><path d="m157.23 70.18h10.29" fill="none" stroke="#fff" stroke-miterlimit="10" stroke-width=".75"/><path d="m157.23 65.87h10.29" fill="none" stroke="#fff" stroke-miterlimit="10" stroke-width=".75"/><path d="m157.23 78.81h10.29" fill="none" stroke="#fff" stroke-miterlimit="10" stroke-width=".75"/><path d="m157.23 91.72h10.29" fill="none" stroke="#fff" stroke-miterlimit="10" stroke-width=".75"/><path d="m157.23 87.41h10.29" fill="none" stroke="#fff" stroke-miterlimit="10" stroke-width=".75"/><path d="m157.23 83.1h10.29" fill="none" stroke="#fff" stroke-miterlimit="10" stroke-width=".75"/><path d="m157.23 96.03h10.29" fill="none" stroke="#fff" stroke-miterlimit="10" stroke-width=".75"/><path d="m153.36 58.62v42.05" fill="none" stroke="#fff" stroke-miterlimit="10" stroke-width="2"/><path d="m170 58.62h-17.65" fill="none" stroke="#fff" stroke-miterlimit="10" stroke-width=".75"/><path d="m103.04 36.36v105.22" fill="none" stroke="#fff" stroke-miterlimit="10" stroke-width="2"/><path d="m170 36.36h-170" fill="none" stroke="#fff" stroke-miterlimit="10" stroke-width="2"/><path d="m131.65 34.98h8v2.76h-8z" transform="matrix(-1 0 0 -1 271.29 72.72)"/><path d="m170 17.65h-138.56v18.71" fill="none" stroke="#fff" stroke-miterlimit="10" stroke-width=".75"/><path d="m78.08 37.35v-19.7" fill="none" stroke="#fff" stroke-miterlimit="10" stroke-width=".75"/><path d="m74.08 25.23h8v2.76h-8z" transform="matrix(0 -1 1 0 51.47 104.69)"/><path d="m144.35 15.58h8v3.45h-8z" transform="matrix(-1 0 0 -1 296.71 34.62)"/><path d="m99.04 91.66h8v2.76h-8z" transform="matrix(0 1 -1 0 196.09 -10)"/><path d="m99.04 73.82h8v2.76h-8z" transform="matrix(0 1 -1 0 178.24 -27.84)"/><path d="m99.04 109.51h8v2.76h-8z" transform="matrix(0 1 -1 0 213.93 7.85)"/><path d="m86.3 34.98h8v2.76h-8z" transform="matrix(-1 0 0 -1 180.6 72.72)"/><g fill="#fff"><path d="m127.52 5.97h1.92c.46 0 .84.38.84.84v2.62c.02.2-.13.36-.32.36h-.02c-.2 0-.26-.12-.26-.31v-2.62h-.01c0-.05-.04-.13-.12-.13s-.11.06-.12.09v5.99c0 .24-.15.43-.39.43s-.39-.19-.39-.43v-3.42h-.36v3.42c0 .24-.18.43-.42.43s-.34-.19-.34-.43c0-5.65 0-2.42 0-5.99 0-.04-.04-.12-.12-.13-.07 0-.13.05-.13.09v2.62c0 .2-.07.38-.27.38-.2 0-.34-.16-.34-.35v-2.62c0-.46.38-.84.84-.84"/><path d="m127.74 5c0 .41.33.74.74.74s.74-.33.74-.74-.33-.74-.74-.74-.74.33-.74.74"/><path d="m35.47 26.7s.65-1.87.76-2.16c.16-.48.44-.72.82-.72h1.23c.38 0 .65.24.82.72.1.3.75 2.15.76 2.16.06.18.04.3-.07.38s-.28.03-.4-.21c-.04-.08-.54-1.08-.85-1.79 0-.02-.04-.01-.04.01.08 1.36.24 1 .58 2.71.02.12-.07.23-.19.23h-.27v2.57c0 .22-.17.41-.4.42-.24 0-.37-.19-.37-.42v-2.57h-.35v2.6c0 .21-.17.39-.38.39-.23 0-.39-.19-.39-.42v-2.57h-.27c-.12 0-.22-.11-.19-.23.34-1.75.47-1.38.55-2.71 0-.02-.02-.03-.03 0s-.76 1.76-.78 1.81c-.09.17-.28.26-.43.2-.1-.05-.16-.21-.1-.39"/><path d="m36.92 22.85c0 .41.33.73.73.73s.73-.33.73-.73-.33-.73-.73-.73-.73.33-.73.73"/><path d="m45.73 22.88c0 .43.35.79.79.79s.79-.35.79-.79-.35-.79-.79-.79-.79.35-.79.79"/><rect height="3.68" rx=".47" width="1.59" x="45.73" y="23.92"/><rect height="3.44" rx=".37" transform="matrix(0 -1 1 0 20.42 74.49)" width="1.27" x="46.82" y="25.31"/><rect height="3.43" rx=".24" width=".84" x="48.34" y="26.61"/><path d="m44.53 24.68c.21-.11.48-.03.6.18s.03.48-.18.6l-.41-.78z"/><path d="m47.43 29.89c.21-.11.48-.03.6.18s.03.48-.18.6l-.41-.78z"/><path d="m46.22 30.14c-1.4-.05-2.5-1.23-2.45-2.63.03-.86.49-1.61 1.17-2.05l-.41-.78c-.94.58-1.59 1.61-1.64 2.79-.07 1.89 1.41 3.48 3.3 3.55.58.02 1.15-.11 1.66-.36l-.41-.78c-.37.18-.79.27-1.21.26z"/><path d="m136.2 5.09c0 .43.35.79.79.79s.79-.35.79-.79-.35-.79-.79-.79-.79.35-.79.79"/><rect height="3.68" rx=".47" width="1.59" x="136.2" y="6.13"/><rect height="3.44" rx=".37" transform="matrix(0 -1 1 0 128.68 147.16)" width="1.27" x="137.28" y="7.52"/><rect height="3.43" rx=".24" width=".84" x="138.8" y="8.82"/><path d="m134.99 6.89c.21-.11.48-.03.6.18s.03.48-.18.6l-.41-.78z"/><path d="m137.9 12.09c.21-.11.48-.03.6.18s.03.48-.18.6l-.41-.78z"/><path d="m136.68 12.35c-1.4-.05-2.5-1.23-2.45-2.63.03-.86.49-1.61 1.17-2.05l-.41-.78c-.94.58-1.59 1.61-1.64 2.79-.07 1.89 1.41 3.48 3.3 3.55.58.02 1.15-.11 1.66-.36l-.41-.78c-.37.18-.79.27-1.21.26z"/></g></svg>