<svg viewBox="0 0 170 140" xmlns="http://www.w3.org/2000/svg"><path d="m0 0h170v140h-170z"/><g fill="none" stroke="#fff" stroke-miterlimit="10"><path d="m107.55 57.04h62.45" stroke-width="2"/><path d="m107.55 140v-82.96" stroke-width=".75"/><path d="m86.13 57.04v-57.04" stroke-width="2"/><path d="m107.55 57.04h-21.42" stroke-width="2"/><path d="m69.6 98.27h37.95" stroke-width=".75"/><path d="m35.3 98.64v-15.15h-20.58v-45.91h54.88v61.07" stroke-width=".75"/><path d="m21.96 140v-42.36h13.34" stroke-width="2"/><path d="m69.6 57.04h16.53" stroke-width="2"/><path d="m70.86 131.57v6.62" stroke-width=".75"/><path d="m57.94 131.57v6.62" stroke-width=".75"/><path d="m62.25 131.57v6.62" stroke-width=".75"/><path d="m66.56 131.57v6.62" stroke-width=".75"/><path d="m53.63 131.57v6.62" stroke-width=".75"/><path d="m47.62 128.13h29.25" stroke-width="2"/><path d="m76.87 140-.01-12.87" stroke-width=".75"/><path d="m36.29 46.32v-6.62" stroke-width=".75"/><path d="m49.21 46.32v-6.62" stroke-width=".75"/><path d="m44.9 46.32v-6.62" stroke-width=".75"/><path d="m40.59 46.32v-6.62" stroke-width=".75"/><path d="m53.52 46.32v-6.62" stroke-width=".75"/><path d="m59.78 49.17h-29.24" stroke-width="2"/><path d="m59.39 37.3v12.87" stroke-width=".75"/></g><path d="m17.81 107.81h8v2.76h-8z" transform="matrix(0 1 -1 0 131 87.38)"/><path d="m17.81 122.5h8v2.76h-8z" transform="matrix(0 1 -1 0 145.69 102.07)"/><path d="m103.32 101.49h8.46v2.76h-8.46z" transform="matrix(0 1 -1 0 210.42 -4.67)"/><path d="m84.35 97.27h8.46v2.76h-8.46z" transform="matrix(-1 0 0 -1 177.15 197.29)"/><path d="m103.32 115.96h8.46v2.76h-8.46z" transform="matrix(0 1 -1 0 224.88 9.79)"/><path d="m140.78 55.66h8.46v2.76h-8.46z" transform="matrix(-1 0 0 -1 290.01 114.08)"/><path d="m126.31 55.66h8.46v2.76h-8.46z" transform="matrix(-1 0 0 -1 261.09 114.08)"/><path d="m154.55 128.99c5.03-5.85 8.57-16.85 8.57-28.47s-3.54-22.61-8.57-28.47" fill="none" stroke="#fff" stroke-linejoin="bevel" stroke-width="2"/><path d="m21.96 97.64h-21.96" fill="none" stroke="#fff" stroke-miterlimit="10" stroke-width="2"/><path d="m75.15 63.28h1.92c.46 0 .84.38.84.84v2.62c.02.2-.13.36-.32.36h-.02c-.2 0-.26-.12-.26-.31v-2.62h-.01c0-.05-.04-.13-.12-.13s-.11.06-.12.09v5.99c0 .24-.15.43-.39.43s-.39-.19-.39-.43v-3.42h-.36v3.42c0 .24-.18.43-.42.43s-.34-.19-.34-.43c0-5.65 0-2.42 0-5.99 0-.04-.04-.12-.12-.13-.07 0-.13.05-.13.09v2.62c0 .2-.07.38-.27.38-.2 0-.34-.16-.34-.35v-2.62c0-.46.38-.84.84-.84" fill="#fff"/><path d="m75.37 62.31c0 .41.33.74.74.74s.74-.33.74-.74-.33-.74-.74-.74-.74.33-.74.74" fill="#fff"/><path d="m80.86 66.15s.65-1.87.76-2.16c.16-.48.44-.72.82-.72h1.23c.38 0 .65.24.82.72.1.3.75 2.15.76 2.16.06.18.04.3-.07.38s-.28.03-.4-.21c-.04-.08-.54-1.08-.85-1.79 0-.02-.04-.01-.04.01.08 1.36.24 1 .58 2.71.02.12-.07.23-.19.23h-.27v2.57c0 .22-.17.41-.4.42-.24 0-.37-.19-.37-.42v-2.57h-.35v2.6c0 .21-.17.39-.38.39-.23 0-.39-.19-.39-.42v-2.57h-.27c-.12 0-.22-.11-.19-.23.34-1.75.47-1.38.55-2.71 0-.02-.02-.03-.03 0s-.76 1.76-.78 1.81c-.09.17-.28.26-.43.2-.1-.05-.16-.21-.1-.39" fill="#fff"/><path d="m82.32 62.3c0 .41.33.73.73.73s.73-.33.73-.73-.33-.73-.73-.73-.73.33-.73.73" fill="#fff"/><path d="m90.83 62.36c0 .43.35.79.79.79s.79-.35.79-.79-.35-.79-.79-.79-.79.35-.79.79" fill="#fff"/><rect fill="#fff" height="3.68" rx=".47" width="1.59" x="90.83" y="63.39"/><rect fill="#fff" height="3.44" rx=".37" transform="matrix(0 -1 1 0 26.05 159.06)" width="1.27" x="91.91" y="64.78"/><rect fill="#fff" height="3.43" rx=".24" width=".84" x="93.44" y="66.09"/><path d="m89.62 64.16c.21-.11.48-.03.6.18s.03.48-.18.6l-.41-.78z" fill="#fff"/><path d="m92.53 69.36c.21-.11.48-.03.6.18s.03.48-.18.6l-.41-.78z" fill="#fff"/><path d="m91.32 69.62c-1.4-.05-2.5-1.23-2.45-2.63.03-.86.49-1.61 1.17-2.05l-.41-.78c-.94.58-1.59 1.61-1.64 2.79-.07 1.89 1.41 3.48 3.3 3.55.58.02 1.15-.11 1.66-.36l-.41-.78c-.37.18-.79.27-1.21.26z" fill="#fff"/></svg>